<svg width="16" height="16" viewBox="0 0 16 16" fill="none" xmlns="http://www.w3.org/2000/svg">
<path fill-rule="evenodd" clip-rule="evenodd" d="M7.9987 14.6668C11.6806 14.6668 14.6654 11.6821 14.6654 8.00016C14.6654 4.31826 11.6806 1.3335 7.9987 1.3335C4.3168 1.3335 1.33203 4.31826 1.33203 8.00016C1.33203 11.6821 4.3168 14.6668 7.9987 14.6668Z" fill="#AD5B09"/>
<path fill-rule="evenodd" clip-rule="evenodd" d="M7.9987 14.6668C11.6806 14.6668 14.6654 11.6821 14.6654 8.00016C14.6654 4.31826 11.6806 1.3335 7.9987 1.3335C4.3168 1.3335 1.33203 4.31826 1.33203 8.00016C1.33203 11.6821 4.3168 14.6668 7.9987 14.6668ZM7.23954 6.2424L7.15216 6.39916C7.05617 6.57135 7.00818 6.65744 6.93335 6.71424C6.85852 6.77105 6.76533 6.79214 6.57893 6.83431L6.40924 6.8727C5.75333 7.02111 5.42537 7.09532 5.34734 7.34622C5.26932 7.59713 5.4929 7.85858 5.94006 8.38148L6.05574 8.51676C6.18281 8.66535 6.24635 8.73964 6.27493 8.83155C6.30351 8.92347 6.29391 9.02259 6.27469 9.22084L6.2572 9.40134C6.1896 10.099 6.1558 10.4478 6.36007 10.6029C6.56434 10.758 6.87141 10.6166 7.48554 10.3338L7.64443 10.2607C7.81894 10.1803 7.9062 10.1401 7.9987 10.1401C8.09119 10.1401 8.17845 10.1803 8.35297 10.2607L8.51185 10.3338C9.12599 10.6166 9.43305 10.758 9.63733 10.6029C9.8416 10.4478 9.8078 10.099 9.74019 9.40133L9.7227 9.22084C9.70349 9.02259 9.69389 8.92347 9.72247 8.83155C9.75105 8.73964 9.81458 8.66535 9.94165 8.51676L10.0573 8.38148C10.5045 7.85858 10.7281 7.59713 10.6501 7.34622C10.572 7.09531 10.2441 7.02111 9.58815 6.8727L9.41846 6.83431C9.23207 6.79214 9.13888 6.77105 9.06405 6.71424C8.98922 6.65744 8.94123 6.57135 8.84524 6.39916L8.75785 6.2424C8.42008 5.63646 8.25119 5.3335 7.9987 5.3335C7.7462 5.3335 7.57731 5.63647 7.23954 6.2424Z" fill="#FFA00F"/>
<path fill-rule="evenodd" clip-rule="evenodd" d="M7.9987 14.6668C11.6806 14.6668 14.6654 11.6821 14.6654 8.00016C14.6654 4.31826 11.6806 1.3335 7.9987 1.3335C4.3168 1.3335 1.33203 4.31826 1.33203 8.00016C1.33203 11.6821 4.3168 14.6668 7.9987 14.6668ZM7.23954 6.2424L7.15216 6.39916C7.05617 6.57135 7.00818 6.65744 6.93335 6.71424C6.85852 6.77105 6.76533 6.79214 6.57893 6.83431L6.40924 6.8727C5.75333 7.02111 5.42537 7.09532 5.34734 7.34622C5.26932 7.59713 5.4929 7.85858 5.94006 8.38148L6.05574 8.51676C6.18281 8.66535 6.24635 8.73964 6.27493 8.83155C6.30351 8.92347 6.29391 9.02259 6.27469 9.22084L6.2572 9.40134C6.1896 10.099 6.1558 10.4478 6.36007 10.6029C6.56434 10.758 6.87141 10.6166 7.48554 10.3338L7.64443 10.2607C7.81894 10.1803 7.9062 10.1401 7.9987 10.1401C8.09119 10.1401 8.17845 10.1803 8.35297 10.2607L8.51185 10.3338C9.12599 10.6166 9.43305 10.758 9.63733 10.6029C9.8416 10.4478 9.8078 10.099 9.74019 9.40133L9.7227 9.22084C9.70349 9.02259 9.69389 8.92347 9.72247 8.83155C9.75105 8.73964 9.81458 8.66535 9.94165 8.51676L10.0573 8.38148C10.5045 7.85858 10.7281 7.59713 10.6501 7.34622C10.572 7.09531 10.2441 7.02111 9.58815 6.8727L9.41846 6.83431C9.23207 6.79214 9.13888 6.77105 9.06405 6.71424C8.98922 6.65744 8.94123 6.57135 8.84524 6.39916L8.75785 6.2424C8.42008 5.63646 8.25119 5.3335 7.9987 5.3335C7.7462 5.3335 7.57731 5.63647 7.23954 6.2424Z" fill="url(#paint0_linear_1963_84599)" fill-opacity="0.3" style="mix-blend-mode:overlay"/>
<path fill-rule="evenodd" clip-rule="evenodd" d="M7.9987 14.6668C11.6806 14.6668 14.6654 11.6821 14.6654 8.00016C14.6654 4.31826 11.6806 1.3335 7.9987 1.3335C4.3168 1.3335 1.33203 4.31826 1.33203 8.00016C1.33203 11.6821 4.3168 14.6668 7.9987 14.6668ZM7.23954 6.2424L7.15216 6.39916C7.05617 6.57135 7.00818 6.65744 6.93335 6.71424C6.85852 6.77105 6.76533 6.79214 6.57893 6.83431L6.40924 6.8727C5.75333 7.02111 5.42537 7.09532 5.34734 7.34622C5.26932 7.59713 5.4929 7.85858 5.94006 8.38148L6.05574 8.51676C6.18281 8.66535 6.24635 8.73964 6.27493 8.83155C6.30351 8.92347 6.29391 9.02259 6.27469 9.22084L6.2572 9.40134C6.1896 10.099 6.1558 10.4478 6.36007 10.6029C6.56434 10.758 6.87141 10.6166 7.48554 10.3338L7.64443 10.2607C7.81894 10.1803 7.9062 10.1401 7.9987 10.1401C8.09119 10.1401 8.17845 10.1803 8.35297 10.2607L8.51185 10.3338C9.12599 10.6166 9.43305 10.758 9.63733 10.6029C9.8416 10.4478 9.8078 10.099 9.74019 9.40133L9.7227 9.22084C9.70349 9.02259 9.69389 8.92347 9.72247 8.83155C9.75105 8.73964 9.81458 8.66535 9.94165 8.51676L10.0573 8.38148C10.5045 7.85858 10.7281 7.59713 10.6501 7.34622C10.572 7.09531 10.2441 7.02111 9.58815 6.8727L9.41846 6.83431C9.23207 6.79214 9.13888 6.77105 9.06405 6.71424C8.98922 6.65744 8.94123 6.57135 8.84524 6.39916L8.75785 6.2424C8.42008 5.63646 8.25119 5.3335 7.9987 5.3335C7.7462 5.3335 7.57731 5.63647 7.23954 6.2424Z" fill="url(#paint1_radial_1963_84599)" fill-opacity="0.6" style="mix-blend-mode:overlay"/>
<defs>
<linearGradient id="paint0_linear_1963_84599" x1="7.9987" y1="1.3335" x2="7.9987" y2="14.6668" gradientUnits="userSpaceOnUse">
<stop stop-color="white"/>
<stop offset="1" stop-color="white" stop-opacity="0"/>
</linearGradient>
<radialGradient id="paint1_radial_1963_84599" cx="0" cy="0" r="1" gradientUnits="userSpaceOnUse" gradientTransform="translate(7.9987 3.6602) rotate(90) scale(11.0066 6.66667)">
<stop stop-color="white"/>
<stop offset="1" stop-color="white" stop-opacity="0"/>
</radialGradient>
</defs>
</svg>
